{
    "asset" : {
        "generator" : "Khronos glTF Blender I/O v1.7.33",
        "version" : "2.0"
    },
    "extensionsUsed" : [
        "KHR_materials_clearcoat"
    ],
    "scene" : 0,
    "scenes" : [
        {
            "name" : "Scene",
            "nodes" : [
                0
            ]
        }
    ],
    "nodes" : [
        {
            "mesh" : 0,
            "name" : "Mesh_0.003",
            "rotation" : [
                -0.02299506962299347,
                0.7052556276321411,
                0.7082100510597229,
                0.022899141535162926
            ],
            "scale" : [
                0.0018022960284724832,
                0.0018022962613031268,
                0.0018022962613031268
            ],
            "translation" : [
                -0.036802880465984344,
                0.008855185471475124,
                0.06701391935348511
            ]
        }
    ],
    "materials" : [
        {
            "alphaMode" : "BLEND",
            "name" : "Mushroom1",
            "pbrMetallicRoughness" : {
                "metallicFactor" : 0.5,
                "roughnessFactor" : 0.5
            }
        },
        {
            "doubleSided" : true,
            "extensions" : {
                "KHR_materials_clearcoat" : {
                    "clearcoatFactor" : 0.12045454233884811,
                    "clearcoatRoughnessFactor" : 0.029999999329447746
                }
            },
            "name" : "Material.001",
            "pbrMetallicRoughness" : {
                "metallicFactor" : 0.25227272510528564,
                "roughnessFactor" : 0.3954545557498932
            }
        },
        {
            "doubleSided" : true,
            "name" : "Mushroom5",
            "pbrMetallicRoughness" : {
                "metallicFactor" : 0,
                "roughnessFactor" : 0.5
            }
        },
        {
            "alphaMode" : "BLEND",
            "name" : "Mushroom6",
            "pbrMetallicRoughness" : {
                "metallicFactor" : 0.5,
                "roughnessFactor" : 0.5
            }
        },
        {
            "alphaMode" : "BLEND",
            "name" : "Mushroom3",
            "pbrMetallicRoughness" : {
                "metallicFactor" : 0.5,
                "roughnessFactor" : 0.5
            }
        },
        {
            "alphaMode" : "BLEND",
            "name" : "Mushroom2",
            "pbrMetallicRoughness" : {
                "metallicFactor" : 0.5,
                "roughnessFactor" : 0.5
            }
        },
        {
            "alphaMode" : "BLEND",
            "name" : "Mushroom4",
            "pbrMetallicRoughness" : {
                "metallicFactor" : 0.5,
                "roughnessFactor" : 0.5
            }
        }
    ],
    "meshes" : [
        {
            "name" : "Mesh_0.003",
            "primitives" : [
                {
                    "attributes" : {
                        "POSITION" : 0,
                        "NORMAL" : 1,
                        "TEXCOORD_0" : 2,
                        "COLOR_0" : 3
                    },
                    "indices" : 4,
                    "material" : 0
                },
                {
                    "attributes" : {
                        "POSITION" : 5,
                        "NORMAL" : 6,
                        "TEXCOORD_0" : 7,
                        "COLOR_0" : 8
                    },
                    "indices" : 9,
                    "material" : 1
                },
                {
                    "attributes" : {
                        "POSITION" : 10,
                        "NORMAL" : 11,
                        "TEXCOORD_0" : 12,
                        "COLOR_0" : 13
                    },
                    "indices" : 14,
                    "material" : 2
                },
                {
                    "attributes" : {
                        "POSITION" : 15,
                        "NORMAL" : 16,
                        "TEXCOORD_0" : 17,
                        "COLOR_0" : 18
                    },
                    "indices" : 19,
                    "material" : 3
                },
                {
                    "attributes" : {
                        "POSITION" : 20,
                        "NORMAL" : 21,
                        "TEXCOORD_0" : 22,
                        "COLOR_0" : 23
                    },
                    "indices" : 24,
                    "material" : 4
                },
                {
                    "attributes" : {
                        "POSITION" : 25,
                        "NORMAL" : 26,
                        "TEXCOORD_0" : 27,
                        "COLOR_0" : 28
                    },
                    "indices" : 29,
                    "material" : 5
                },
                {
                    "attributes" : {
                        "POSITION" : 30,
                        "NORMAL" : 31,
                        "TEXCOORD_0" : 32,
                        "COLOR_0" : 33
                    },
                    "indices" : 34,
                    "material" : 6
                }
            ]
        }
    ],
    "accessors" : [
        {
            "bufferView" : 0,
            "componentType" : 5126,
            "count" : 1818,
            "max" : [
                13.993671417236328,
                5.936598777770996,
                2.7943272590637207
            ],
            "min" : [
                -4.559013843536377,
                -18.319355010986328,
                -2.439718723297119
            ],
            "type" : "VEC3"
        },
        {
            "bufferView" : 1,
            "componentType" : 5126,
            "count" : 1818,
            "type" : "VEC3"
        },
        {
            "bufferView" : 2,
            "componentType" : 5126,
            "count" : 1818,
            "type" : "VEC2"
        },
        {
            "bufferView" : 3,
            "componentType" : 5123,
            "count" : 1818,
            "normalized" : true,
            "type" : "VEC4"
        },
        {
            "bufferView" : 4,
            "componentType" : 5123,
            "count" : 3498,
            "type" : "SCALAR"
        },
        {
            "bufferView" : 5,
            "componentType" : 5126,
            "count" : 3356,
            "max" : [
                8.78536319732666,
                24.813945770263672,
                8.542181968688965
            ],
            "min" : [
                -52.665924072265625,
                -74.62821197509766,
                -52.99823760986328
            ],
            "type" : "VEC3"
        },
        {
            "bufferView" : 6,
            "componentType" : 5126,
            "count" : 3356,
            "type" : "VEC3"
        },
        {
            "bufferView" : 7,
            "componentType" : 5126,
            "count" : 3356,
            "type" : "VEC2"
        },
        {
            "bufferView" : 8,
            "componentType" : 5123,
            "count" : 3356,
            "normalized" : true,
            "type" : "VEC4"
        },
        {
            "bufferView" : 9,
            "componentType" : 5123,
            "count" : 4998,
            "type" : "SCALAR"
        },
        {
            "bufferView" : 10,
            "componentType" : 5126,
            "count" : 715,
            "max" : [
                -45.42057418823242,
                -3.126955986022949,
                -6.4463348388671875
            ],
            "min" : [
                -61.589942932128906,
                -28.226150512695312,
                -12.942508697509766
            ],
            "type" : "VEC3"
        },
        {
            "bufferView" : 11,
            "componentType" : 5126,
            "count" : 715,
            "type" : "VEC3"
        },
        {
            "bufferView" : 12,
            "componentType" : 5126,
            "count" : 715,
            "type" : "VEC2"
        },
        {
            "bufferView" : 13,
            "componentType" : 5123,
            "count" : 715,
            "normalized" : true,
            "type" : "VEC4"
        },
        {
            "bufferView" : 14,
            "componentType" : 5123,
            "count" : 1194,
            "type" : "SCALAR"
        },
        {
            "bufferView" : 15,
            "componentType" : 5126,
            "count" : 2152,
            "max" : [
                -31.936960220336914,
                21.30069923400879,
                5.32545280456543
            ],
            "min" : [
                -49.226348876953125,
                -17.560836791992188,
                3.525583267211914
            ],
            "type" : "VEC3"
        },
        {
            "bufferView" : 16,
            "componentType" : 5126,
            "count" : 2152,
            "type" : "VEC3"
        },
        {
            "bufferView" : 17,
            "componentType" : 5126,
            "count" : 2152,
            "type" : "VEC2"
        },
        {
            "bufferView" : 18,
            "componentType" : 5123,
            "count" : 2152,
            "normalized" : true,
            "type" : "VEC4"
        },
        {
            "bufferView" : 19,
            "componentType" : 5123,
            "count" : 3894,
            "type" : "SCALAR"
        },
        {
            "bufferView" : 20,
            "componentType" : 5126,
            "count" : 1054,
            "max" : [
                0.2585315704345703,
                20.175241470336914,
                7.7353925704956055
            ],
            "min" : [
                -12.607405662536621,
                -0.3043997287750244,
                4.777978897094727
            ],
            "type" : "VEC3"
        },
        {
            "bufferView" : 21,
            "componentType" : 5126,
            "count" : 1054,
            "type" : "VEC3"
        },
        {
            "bufferView" : 22,
            "componentType" : 5126,
            "count" : 1054,
            "type" : "VEC2"
        },
        {
            "bufferView" : 23,
            "componentType" : 5123,
            "count" : 1054,
            "normalized" : true,
            "type" : "VEC4"
        },
        {
            "bufferView" : 24,
            "componentType" : 5123,
            "count" : 1998,
            "type" : "SCALAR"
        },
        {
            "bufferView" : 25,
            "componentType" : 5126,
            "count" : 1249,
            "max" : [
                21.347457885742188,
                20.914817810058594,
                -12.182114601135254
            ],
            "min" : [
                7.2570481300354,
                -0.13019752502441406,
                -18.109670639038086
            ],
            "type" : "VEC3"
        },
        {
            "bufferView" : 26,
            "componentType" : 5126,
            "count" : 1249,
            "type" : "VEC3"
        },
        {
            "bufferView" : 27,
            "componentType" : 5126,
            "count" : 1249,
            "type" : "VEC2"
        },
        {
            "bufferView" : 28,
            "componentType" : 5123,
            "count" : 1249,
            "normalized" : true,
            "type" : "VEC4"
        },
        {
            "bufferView" : 29,
            "componentType" : 5123,
            "count" : 2394,
            "type" : "SCALAR"
        },
        {
            "bufferView" : 30,
            "componentType" : 5126,
            "count" : 1806,
            "max" : [
                -38.66887664794922,
                -41.612648010253906,
                -32.89227294921875
            ],
            "min" : [
                -56.33393478393555,
                -68.38146209716797,
                -35.14625549316406
            ],
            "type" : "VEC3"
        },
        {
            "bufferView" : 31,
            "componentType" : 5126,
            "count" : 1806,
            "type" : "VEC3"
        },
        {
            "bufferView" : 32,
            "componentType" : 5126,
            "count" : 1806,
            "type" : "VEC2"
        },
        {
            "bufferView" : 33,
            "componentType" : 5123,
            "count" : 1806,
            "normalized" : true,
            "type" : "VEC4"
        },
        {
            "bufferView" : 34,
            "componentType" : 5123,
            "count" : 3474,
            "type" : "SCALAR"
        }
    ],
    "bufferViews" : [
        {
            "buffer" : 0,
            "byteLength" : 21816,
            "byteOffset" : 0
        },
        {
            "buffer" : 0,
            "byteLength" : 21816,
            "byteOffset" : 21816
        },
        {
            "buffer" : 0,
            "byteLength" : 14544,
            "byteOffset" : 43632
        },
        {
            "buffer" : 0,
            "byteLength" : 14544,
            "byteOffset" : 58176
        },
        {
            "buffer" : 0,
            "byteLength" : 6996,
            "byteOffset" : 72720
        },
        {
            "buffer" : 0,
            "byteLength" : 40272,
            "byteOffset" : 79716
        },
        {
            "buffer" : 0,
            "byteLength" : 40272,
            "byteOffset" : 119988
        },
        {
            "buffer" : 0,
            "byteLength" : 26848,
            "byteOffset" : 160260
        },
        {
            "buffer" : 0,
            "byteLength" : 26848,
            "byteOffset" : 187108
        },
        {
            "buffer" : 0,
            "byteLength" : 9996,
            "byteOffset" : 213956
        },
        {
            "buffer" : 0,
            "byteLength" : 8580,
            "byteOffset" : 223952
        },
        {
            "buffer" : 0,
            "byteLength" : 8580,
            "byteOffset" : 232532
        },
        {
            "buffer" : 0,
            "byteLength" : 5720,
            "byteOffset" : 241112
        },
        {
            "buffer" : 0,
            "byteLength" : 5720,
            "byteOffset" : 246832
        },
        {
            "buffer" : 0,
            "byteLength" : 2388,
            "byteOffset" : 252552
        },
        {
            "buffer" : 0,
            "byteLength" : 25824,
            "byteOffset" : 254940
        },
        {
            "buffer" : 0,
            "byteLength" : 25824,
            "byteOffset" : 280764
        },
        {
            "buffer" : 0,
            "byteLength" : 17216,
            "byteOffset" : 306588
        },
        {
            "buffer" : 0,
            "byteLength" : 17216,
            "byteOffset" : 323804
        },
        {
            "buffer" : 0,
            "byteLength" : 7788,
            "byteOffset" : 341020
        },
        {
            "buffer" : 0,
            "byteLength" : 12648,
            "byteOffset" : 348808
        },
        {
            "buffer" : 0,
            "byteLength" : 12648,
            "byteOffset" : 361456
        },
        {
            "buffer" : 0,
            "byteLength" : 8432,
            "byteOffset" : 374104
        },
        {
            "buffer" : 0,
            "byteLength" : 8432,
            "byteOffset" : 382536
        },
        {
            "buffer" : 0,
            "byteLength" : 3996,
            "byteOffset" : 390968
        },
        {
            "buffer" : 0,
            "byteLength" : 14988,
            "byteOffset" : 394964
        },
        {
            "buffer" : 0,
            "byteLength" : 14988,
            "byteOffset" : 409952
        },
        {
            "buffer" : 0,
            "byteLength" : 9992,
            "byteOffset" : 424940
        },
        {
            "buffer" : 0,
            "byteLength" : 9992,
            "byteOffset" : 434932
        },
        {
            "buffer" : 0,
            "byteLength" : 4788,
            "byteOffset" : 444924
        },
        {
            "buffer" : 0,
            "byteLength" : 21672,
            "byteOffset" : 449712
        },
        {
            "buffer" : 0,
            "byteLength" : 21672,
            "byteOffset" : 471384
        },
        {
            "buffer" : 0,
            "byteLength" : 14448,
            "byteOffset" : 493056
        },
        {
            "buffer" : 0,
            "byteLength" : 14448,
            "byteOffset" : 507504
        },
        {
            "buffer" : 0,
            "byteLength" : 6948,
            "byteOffset" : 521952
        }
    ],
    "buffers" : [
        {
            "byteLength" : 528900,
            "uri" : "data:application/octet-stream;base64,"
        }
    ]
}
